<svg width="21" height="20" viewBox="0 0 21 20" fill="none" xmlns="http://www.w3.org/2000/svg">
<path d="M13.628 5.99996H16.9593V7.33329H15.6268V16C15.6268 16.1866 15.5624 16.3444 15.4336 16.4733C15.3048 16.6022 15.1471 16.6666 14.9605 16.6666H5.63303C5.44648 16.6666 5.2888 16.6022 5.15999 16.4733C5.03118 16.3444 4.96678 16.1866 4.96678 16V7.33329H3.63428V5.99996H6.96553V3.99996C6.96553 3.81329 7.02993 3.65552 7.15874 3.52663C7.28755 3.39774 7.44523 3.33329 7.63178 3.33329H12.9618C13.1483 3.33329 13.306 3.39774 13.4348 3.52663C13.5636 3.65552 13.628 3.81329 13.628 3.99996V5.99996ZM14.2943 7.33329H6.29928V15.3333H14.2943V7.33329ZM8.29803 9.33329H9.63053V13.3333H8.29803V9.33329ZM10.963 9.33329H12.2955V13.3333H10.963V9.33329ZM8.29803 4.66663V5.99996H12.2955V4.66663H8.29803Z" fill="#DC2626"/>
</svg>
