<svg width="21" height="20" viewBox="0 0 21 20" fill="none" xmlns="http://www.w3.org/2000/svg">
<path d="M10.2967 2.66671L16.626 6.33337V13.6667L10.2967 17.3334L3.96729 13.6667V6.33337L10.2967 2.66671ZM10.2967 4.21337L5.29979 7.10671V12.8934L10.2967 15.7867L15.2935 12.8934V7.10671L10.2967 4.21337ZM10.2967 12.6667C9.81696 12.6667 9.37279 12.5467 8.96416 12.3067C8.55553 12.0667 8.23129 11.7423 7.99144 11.3334C7.75159 10.9245 7.63166 10.48 7.63166 10C7.63166 9.52004 7.75159 9.0756 7.99144 8.66671C8.23129 8.25782 8.55553 7.93337 8.96416 7.69337C9.37279 7.45337 9.81696 7.33337 10.2967 7.33337C10.7764 7.33337 11.2205 7.45337 11.6292 7.69337C12.0378 7.93337 12.362 8.25782 12.6019 8.66671C12.8417 9.0756 12.9617 9.52004 12.9617 10C12.9617 10.48 12.8417 10.9245 12.6019 11.3334C12.362 11.7423 12.0378 12.0667 11.6292 12.3067C11.2205 12.5467 10.7764 12.6667 10.2967 12.6667ZM10.2967 11.3334C10.5365 11.3334 10.7586 11.2734 10.9629 11.1534C11.1672 11.0334 11.3293 10.8712 11.4493 10.6667C11.5692 10.4623 11.6292 10.24 11.6292 10C11.6292 9.76004 11.5692 9.53782 11.4493 9.33337C11.3293 9.12893 11.1672 8.96671 10.9629 8.84671C10.7586 8.72671 10.5365 8.66671 10.2967 8.66671C10.0568 8.66671 9.83473 8.72671 9.63041 8.84671C9.42609 8.96671 9.26397 9.12893 9.14405 9.33337C9.02412 9.53782 8.96416 9.76004 8.96416 10C8.96416 10.24 9.02412 10.4623 9.14405 10.6667C9.26397 10.8712 9.42609 11.0334 9.63041 11.1534C9.83473 11.2734 10.0568 11.3334 10.2967 11.3334Z" fill="#4B5563"/>
</svg>
