<svg width="17" height="16" viewBox="0 0 17 16" fill="none" xmlns="http://www.w3.org/2000/svg">
<path d="M9.47605 10.9284L7.02692 9.59837C6.80922 9.82393 6.55265 10.0028 6.2572 10.135C5.96175 10.2673 5.65075 10.3334 5.3242 10.3334C4.90435 10.3334 4.5156 10.2284 4.15795 10.0184C3.8003 9.80837 3.51651 9.52449 3.30659 9.16671C3.09666 8.80893 2.9917 8.42004 2.9917 8.00004C2.9917 7.58004 3.09666 7.19115 3.30659 6.83337C3.51651 6.4756 3.8003 6.19171 4.15795 5.98171C4.5156 5.77171 4.90435 5.66671 5.3242 5.66671C5.65075 5.66671 5.96175 5.73282 6.2572 5.86504C6.55265 5.99726 6.80922 6.17615 7.02692 6.40171L9.47605 5.07171C9.4294 4.88504 9.40607 4.69449 9.40607 4.50004C9.40607 4.08004 9.51104 3.69115 9.72096 3.33337C9.93089 2.9756 10.2147 2.69171 10.5723 2.48171C10.93 2.27171 11.3187 2.16671 11.7386 2.16671C12.1584 2.16671 12.5472 2.27171 12.9048 2.48171C13.2625 2.69171 13.5463 2.9756 13.7562 3.33337C13.9661 3.69115 14.0711 4.08004 14.0711 4.50004C14.0711 4.92004 13.9661 5.30893 13.7562 5.66671C13.5463 6.02448 13.2625 6.30837 12.9048 6.51837C12.5472 6.72837 12.1584 6.83337 11.7386 6.83337C11.412 6.83337 11.101 6.76726 10.8056 6.63504C10.5101 6.50282 10.2535 6.32393 10.0358 6.09837L7.58672 7.42837C7.63337 7.61504 7.6567 7.8056 7.6567 8.00004C7.6567 8.19448 7.63337 8.38504 7.58672 8.57171L10.0358 9.90171C10.2535 9.67615 10.5101 9.49726 10.8056 9.36504C11.101 9.23282 11.412 9.16671 11.7386 9.16671C12.1584 9.16671 12.5472 9.27171 12.9048 9.48171C13.2625 9.69171 13.5463 9.9756 13.7562 10.3334C13.9661 10.6912 14.0711 11.08 14.0711 11.5C14.0711 11.92 13.9661 12.3089 13.7562 12.6667C13.5463 13.0245 13.2625 13.3084 12.9048 13.5184C12.5472 13.7284 12.1584 13.8334 11.7386 13.8334C11.3187 13.8334 10.93 13.7284 10.5723 13.5184C10.2147 13.3084 9.93089 13.0245 9.72096 12.6667C9.51104 12.3089 9.40607 11.92 9.40607 11.5C9.40607 11.3056 9.4294 11.115 9.47605 10.9284ZM5.3242 9.16671C5.53412 9.16671 5.7285 9.11421 5.90732 9.00921C6.08615 8.90421 6.22804 8.76226 6.33301 8.58337C6.43797 8.40449 6.49045 8.21004 6.49045 8.00004C6.49045 7.79004 6.43797 7.5956 6.33301 7.41671C6.22804 7.23782 6.08615 7.09587 5.90732 6.99087C5.7285 6.88587 5.53412 6.83337 5.3242 6.83337C5.11427 6.83337 4.9199 6.88587 4.74107 6.99087C4.56225 7.09587 4.42036 7.23782 4.31539 7.41671C4.21043 7.5956 4.15795 7.79004 4.15795 8.00004C4.15795 8.21004 4.21043 8.40449 4.31539 8.58337C4.42036 8.76226 4.56225 8.90421 4.74107 9.00921C4.9199 9.11421 5.11427 9.16671 5.3242 9.16671ZM11.7386 5.66671C11.9485 5.66671 12.1429 5.61421 12.3217 5.50921C12.5005 5.40421 12.6424 5.26226 12.7474 5.08337C12.8523 4.90449 12.9048 4.71004 12.9048 4.50004C12.9048 4.29004 12.8523 4.0956 12.7474 3.91671C12.6424 3.73782 12.5005 3.59587 12.3217 3.49087C12.1429 3.38587 11.9485 3.33337 11.7386 3.33337C11.5286 3.33337 11.3343 3.38587 11.1554 3.49087C10.9766 3.59587 10.8347 3.73782 10.7298 3.91671C10.6248 4.0956 10.5723 4.29004 10.5723 4.50004C10.5723 4.71004 10.6248 4.90449 10.7298 5.08337C10.8347 5.26226 10.9766 5.40421 11.1554 5.50921C11.3343 5.61421 11.5286 5.66671 11.7386 5.66671ZM11.7386 12.6667C11.9485 12.6667 12.1429 12.6142 12.3217 12.5092C12.5005 12.4042 12.6424 12.2623 12.7474 12.0834C12.8523 11.9045 12.9048 11.71 12.9048 11.5C12.9048 11.29 12.8523 11.0956 12.7474 10.9167C12.6424 10.7378 12.5005 10.5959 12.3217 10.4909C12.1429 10.3859 11.9485 10.3334 11.7386 10.3334C11.5286 10.3334 11.3343 10.3859 11.1554 10.4909C10.9766 10.5959 10.8347 10.7378 10.7298 10.9167C10.6248 11.0956 10.5723 11.29 10.5723 11.5C10.5723 11.71 10.6248 11.9045 10.7298 12.0834C10.8347 12.2623 10.9766 12.4042 11.1554 12.5092C11.3343 12.6142 11.5286 12.6667 11.7386 12.6667Z" fill="#374151"/>
</svg>
