<svg width="20" height="20" viewBox="0 0 20 20" fill="none" xmlns="http://www.w3.org/2000/svg">
<path d="M9.9999 16.6667C9.0938 16.6667 8.22768 16.4934 7.40153 16.1467C6.61091 15.809 5.90691 15.3312 5.28951 14.7134C4.67212 14.0956 4.19464 13.3912 3.85708 12.6001C3.51063 11.7734 3.3374 10.9067 3.3374 10.0001C3.3374 9.09342 3.51063 8.22675 3.85708 7.40008C4.19464 6.60897 4.67212 5.90453 5.28951 5.28675C5.90691 4.66897 6.61091 4.19119 7.40153 3.85342C8.22768 3.50675 9.0938 3.33342 9.9999 3.33342C10.906 3.33342 11.7721 3.50675 12.5983 3.85342C13.3889 4.19119 14.0929 4.66897 14.7103 5.28675C15.3277 5.90453 15.8052 6.60897 16.1427 7.40008C16.4892 8.22675 16.6624 9.09342 16.6624 10.0001C16.6624 10.9067 16.4892 11.7734 16.1427 12.6001C15.8052 13.3912 15.3277 14.0956 14.7103 14.7134C14.0929 15.3312 13.3889 15.809 12.5983 16.1467C11.7721 16.4934 10.906 16.6667 9.9999 16.6667ZM9.9999 15.3334C10.9682 15.3334 11.8654 15.089 12.6916 14.6001C13.4911 14.129 14.1262 13.4934 14.597 12.6934C15.0856 11.8667 15.3299 10.969 15.3299 10.0001C15.3299 9.03119 15.0856 8.13342 14.597 7.30675C14.1262 6.50675 13.4911 5.87119 12.6916 5.40008C11.8654 4.91119 10.9682 4.66675 9.9999 4.66675C9.03162 4.66675 8.1344 4.91119 7.30825 5.40008C6.50875 5.87119 5.87359 6.50675 5.40278 7.30675C4.91419 8.13342 4.6699 9.03119 4.6699 10.0001C4.6699 10.969 4.91419 11.8667 5.40278 12.6934C5.87359 13.4934 6.50875 14.129 7.30825 14.6001C8.1344 15.089 9.03162 15.3334 9.9999 15.3334ZM9.33365 12.0001H10.6662V13.3334H9.33365V12.0001ZM9.33365 6.66675H10.6662V10.6667H9.33365V6.66675Z" fill="#DC2626"/>
</svg>
