<svg width="20" height="20" viewBox="0 0 20 20" fill="none" xmlns="http://www.w3.org/2000/svg">
<path d="M10.5731 4.17334L16.9292 15.1733C17.018 15.3245 17.038 15.4889 16.9891 15.6667C16.9403 15.8445 16.8359 15.9822 16.676 16.08C16.5783 16.1422 16.4672 16.1733 16.3429 16.1733H3.65746C3.47091 16.1733 3.31323 16.1067 3.18442 15.9733C3.05562 15.84 2.99121 15.6845 2.99121 15.5067C2.99121 15.3822 3.01786 15.2711 3.07116 15.1733L9.42719 4.17334C9.51602 4.01334 9.64927 3.9089 9.82694 3.86001C10.0046 3.81112 10.1734 3.83112 10.3333 3.92001C10.4399 3.98223 10.5198 4.06667 10.5731 4.17334ZM4.80341 14.84H15.1969L10.0002 5.84001L4.80341 14.84ZM9.33391 12.84H10.6664V14.1733H9.33391V12.84ZM9.33391 8.17334H10.6664V11.5067H9.33391V8.17334Z" fill="#CA8A04"/>
</svg>
